<?xml version="1.0" encoding="UTF-8"?>
<!-- Generated by Pixelmator Pro Trial 3.6.14 -->
<svg width="288" height="106" viewBox="0 0 288 106" xmlns="http://www.w3.org/2000/svg">
    <g id="Group">
        <g id="lettergroup">
            <g id="g1">
                <path id="Path" fill="#222222" stroke="none" d="M 104.254471 41.300766 C 103.512566 43.811813 102.99894 46.437012 102.77066 49.119278 C 102.656525 50.43187 102.599457 51.687393 102.599457 53 C 102.599457 54.312607 102.656525 55.625198 102.77066 56.880722 L 110.360901 56.880722 L 119.092529 56.880722 L 119.092529 64.699234 L 119.092529 75.770721 C 116.124916 72.574829 113.785072 68.808243 112.244194 64.699234 L 104.254471 64.699234 C 106.822594 73.259659 112.072983 80.678688 119.035461 85.929085 C 121.432381 87.755302 124.057571 89.296188 126.853981 90.494637 L 126.853981 81.991295 L 126.853981 64.699234 L 126.853981 56.880722 L 126.853981 49.119278 L 119.035461 49.119278 L 110.360901 49.119278 C 110.703316 46.379944 111.331085 43.811813 112.244194 41.300766 C 113.785072 37.134689 116.124916 33.368103 119.092529 30.229279 L 119.092529 41.300766 L 126.911049 41.300766 L 126.911049 23.951645 L 126.911049 15.505356 C 124.114647 16.760895 121.546516 18.301758 119.092529 20.127991 C 112.072983 25.321304 106.822594 32.740341 104.254471 41.300766 Z"/>
            </g>
            <g id="g2">
                <path id="path1" fill="#222222" stroke="none" d="M 144.028534 12.024124 C 142.487656 12.024124 140.946777 12.13826 139.405914 12.309464 C 136.66658 12.594818 134.09845 13.165512 131.587387 13.964478 L 131.587387 22.011276 L 131.587387 49.290482 L 131.587387 57.108994 L 131.587387 84.388206 L 131.587387 92.435005 C 134.09845 93.233978 136.723648 93.804672 139.405914 94.090019 L 139.405914 86.499779 L 139.405914 57.051926 L 148.651169 57.051926 L 156.469681 57.051926 L 156.469681 49.233414 L 156.469681 21.954208 L 156.469681 13.964478 C 153.958618 13.165512 151.33342 12.594818 148.651169 12.309464 C 147.110291 12.13826 145.569412 12.024124 144.028534 12.024124 Z M 148.651169 49.233414 L 139.405914 49.233414 L 139.405914 19.899704 C 140.946777 19.671432 142.487656 19.557297 144.028534 19.557297 C 145.569412 19.557297 147.167358 19.671432 148.651169 19.899704 L 148.651169 49.233414 L 148.651169 49.233414 Z"/>
            </g>
            <g id="g3">
                <path id="path2" fill="#222222" stroke="none" d="M 185.286407 49.119278 C 184.373291 39.303329 179.978943 30.457565 173.358887 23.894577 L 173.358887 36.107437 C 175.641663 39.988159 177.182541 44.439575 177.696167 49.119278 L 173.358887 49.119278 L 169.021606 49.119278 L 169.021606 30.229279 L 169.021606 20.070923 C 166.510559 18.301758 163.942429 16.760895 161.146027 15.505356 L 161.146027 24.008713 L 161.146027 49.119278 L 161.146027 56.93779 L 161.146027 82.048363 L 161.146027 90.551712 C 163.942429 89.296188 166.510559 87.755302 168.964539 85.986153 L 168.964539 75.884857 L 168.964539 56.880722 L 173.301819 56.880722 L 177.639099 56.880722 C 177.068405 61.560425 175.584595 66.011841 173.301819 69.892563 L 173.301819 82.105431 C 179.921875 75.542442 184.316223 66.696671 185.22934 56.880722 C 185.343475 55.56813 185.400543 54.312607 185.400543 53 C 185.457611 51.687393 185.400543 50.374802 185.286407 49.119278 Z"/>
            </g>
        </g>
        <g id="theframe">
            <path id="path3" fill="#e6ae23" stroke="none" d="M 90.5 37.5 C 93.199997 28 98.400002 19.600006 105.400002 12.899994 C 58 12.899994 16.1 12.899994 0.8 12.899994 C 0.8 25.899994 10.9 36.600006 23.700001 37.5 C 37.900002 37.5 60 37.5 90.5 37.5 Z"/>
            <path id="path4" fill="#e6ae23" stroke="none" d="M 182.600006 12.899994 C 189.5 19.600006 194.699997 28 197.5 37.5 C 228.100006 37.5 250.199997 37.5 264.399994 37.5 C 277.200012 36.600006 287.299988 25.899994 287.299988 12.899994 C 270.5 12.899994 229.199997 12.899994 182.600006 12.899994 Z"/>
            <path id="path5" fill="#e6ae23" stroke="none" d="M 89.699997 65.300003 C 88.800003 61.399994 88.300003 57.300003 88.300003 53 C 88.300003 48.899994 88.800003 44.699997 89.699997 40.699997 C 55.099998 40.699997 28.200001 40.699997 25.1 40.699997 C 25.1 53.699997 35.200001 64.399994 48 65.300003 C 59.900002 65.300003 70.5 65.300003 89.699997 65.300003 Z"/>
            <path id="path6" fill="#e6ae23" stroke="none" d="M 199.699997 53 C 199.699997 57.199997 199.199997 61.300003 198.300003 65.300003 C 210.899994 65.300003 221 65.300003 240.100006 65.300003 C 252.899994 64.399994 263 53.699997 263 40.699997 C 260.100006 40.699997 233.199997 40.699997 198.399994 40.699997 C 199.199997 44.699997 199.699997 48.899994 199.699997 53 Z"/>
            <path id="path7" fill="#e6ae23" stroke="none" d="M 90.5 68.399994 C 76.599998 68.399994 63.200001 68.399994 50.900002 68.399994 C 50.900002 82 61.900002 93.100006 75.599998 93.100006 C 83.900002 93.100006 94.199997 93.100006 105.5 93.100006 C 98.300003 86.300003 93.199997 77.800003 90.5 68.399994 Z"/>
            <path id="path8" fill="#e6ae23" stroke="none" d="M 182.600006 93.100006 C 194.300003 93.100006 204.600006 93.100006 212.5 93.100006 C 226.199997 93.100006 237.199997 82 237.199997 68.399994 C 224.899994 68.399994 211.5 68.399994 197.600006 68.399994 C 194.800003 77.800003 189.699997 86.300003 182.600006 93.100006 Z"/>
            <path id="path9" fill="#242424" stroke="none" d="M 196.600006 53 C 196.600006 24.100006 173.199997 0.399994 144 0.399994 C 114.800003 0.399994 91.400002 24.199997 91.400002 53 C 91.400002 81.600006 114.5 105.600006 144 105.600006 C 172.899994 105.600006 196.600006 82.100006 196.600006 53 Z M 144 101.5 C 117.199997 101.5 95.5 79.800003 95.5 53 C 95.5 26.100006 117.400002 4.5 144 4.5 C 170.800003 4.5 192.5 26.199997 192.5 53 C 192.5 79.699997 170.699997 101.5 144 101.5 Z"/>
        </g>
    </g>
</svg>
