<svg xmlns="http://www.w3.org/2000/svg" version="1.1" xmlns:xlink="http://www.w3.org/1999/xlink" xmlns:svgjs="http://svgjs.dev/svgjs" width="288px" height="288px"><svg version="1.1" xmlns="http://www.w3.org/2000/svg" enable-background="new 0 0 288 288" viewBox="0 0 288 288" x="0px" y="0px" width="288px" height="288px"> <g><path fill="#242424" d="M254.7,144.267c-0.434,7.803-0.148,15.58,1.021,23.307c0.604,3.995,0.184,7.906-0.854,11.762	c-2.615,9.718-7.337,18.335-13.746,26.058c-1.01,1.218-2.077,2.4-2.975,3.697c-7.297,10.535-16.322,19.337-26.654,26.865	c-13.404,9.766-28.113,16.636-44.35,20.14c-7.75,1.673-15.612,2.621-23.481,3.493c-4.46,0.494-8.932,0.88-13.402,1.272	c-20.254,1.775-39.067-2.683-56.468-13.146c-7.92-4.762-14.362-11.151-19.957-18.437c-8.158-10.624-13.498-22.615-17.094-35.443	c-2.249-8.025-3.881-16.165-4.53-24.487c-0.527-6.751-0.001-13.46,0.88-20.145c1.209-9.178,3.296-18.174,5.941-27.037	c3.398-11.388,6.15-22.935,8.684-34.54c1.437-6.582,3.1-13.11,5.763-19.318C60.82,51.191,72.814,38.57,89.959,31.066	c6.725-2.943,13.803-4.606,21.168-4.264c3.932,0.183,7.899,0.749,11.735,1.639c11.562,2.681,23.087,5.534,34.586,8.475	c3.95,1.01,7.857,2.29,11.657,3.771c8.974,3.499,17.762,7.428,26.352,11.808c4.695,2.394,9.532,4.519,14.353,6.656	c6.736,2.986,12.583,7.187,17.647,12.515c3.205,3.372,6.026,7.042,8.017,11.245c5.198,10.971,10.336,21.972,15.388,33.011	c2.784,6.083,4.142,12.495,3.859,19.235C254.594,138.189,254.7,141.23,254.7,144.267z"></path><g id="SvgjsG1011" transform="scale(1.9816529614678902)"><g><g><path d="M20.95-0.43C23.02-0.96 24.80-1.81 26.32-2.99C27.83-4.16 28.93-5.48 29.63-6.95C30.32-8.41 30.79-9.98 31.03-11.66C31.27-13.34 31.18-15.00 30.74-16.63C29.93-20.23 27.86-23.35 24.55-25.99C23.21-27.10 21.22-28.30 18.58-29.59C17.09-30.31 16.01-30.89 15.34-31.32C12.84-33.00 11.78-35.47 12.17-38.74C12.22-39.36 12.41-39.95 12.74-40.50C13.08-41.05 13.50-41.51 14.00-41.87C14.51-42.23 15.05-42.46 15.62-42.55C17.50-42.94 19.20-42.60 20.74-41.54C20.83-41.45 20.95-41.34 21.10-41.22C21.24-41.10 21.41-40.97 21.60-40.82C21.79-40.68 21.94-40.58 22.03-40.54C22.37-40.25 22.61-40.10 22.75-40.10C22.90-40.10 23.14-40.25 23.47-40.54C24.10-41.11 25.13-42.07 26.57-43.42C27.00-43.85 27.34-44.21 27.58-44.50C28.15-45.12 28.18-45.77 27.65-46.44C27.55-46.63 27.43-46.78 27.29-46.87C22.63-51.00 17.52-52.06 11.95-50.04C7.78-48.55 5.09-45.31 3.89-40.32C2.88-36.24 3.77-32.21 6.55-28.22C7.85-26.40 9.86-24.74 12.60-23.26C13.13-22.97 13.91-22.57 14.94-22.07C15.97-21.56 16.61-21.24 16.85-21.10C18.34-20.33 19.63-19.39 20.74-18.29C21.89-16.99 22.56-15.62 22.75-14.18C22.99-12.12 22.46-10.58 21.17-9.58C19.63-8.42 17.90-7.97 15.98-8.21C14.30-8.40 12.74-9.05 11.30-10.15C11.06-10.34 10.10-11.14 8.42-12.53C7.94-12.91 7.58-13.10 7.34-13.10C7.10-13.10 6.77-12.89 6.34-12.46C5.71-11.88 4.82-11.04 3.67-9.94L2.38-8.64C1.90-8.11 1.87-7.58 2.30-7.06C2.45-6.86 2.66-6.62 2.95-6.34C4.58-4.75 6.26-3.43 7.99-2.38C10.82-0.70 13.92 0.14 17.28 0.14C18.19 0.19 19.42 0 20.95-0.43ZM48.17-21.46C50.66-21.55 53.28-22.08 56.02-23.04C58.32-23.86 60.26-25.18 61.85-27.00C63.43-28.82 64.52-30.79 65.12-32.90C65.72-35.02 65.86-37.10 65.52-39.17C64.80-43.68 62.42-46.94 58.39-48.96C56.28-50.02 53.93-50.57 51.34-50.62C49.42-50.71 45.41-50.76 39.31-50.76C38.64-50.81 38.16-50.68 37.87-50.36C37.58-50.05 37.44-49.56 37.44-48.89L37.44-47.41L37.44-45.94C37.58-17.47 37.66-3.10 37.66-2.81C37.66-2.23 37.68-1.78 37.73-1.44C37.82-0.53 38.30-0.07 39.17-0.07C40.99-0.02 42.70-0.02 44.28-0.07C45.24-0.12 45.77-0.65 45.86-1.66C45.91-1.85 45.91-2.21 45.86-2.74L45.86-8.24L45.86-14.72L45.86-20.23L45.86-21.38C47.26-21.43 48.02-21.46 48.17-21.46ZM45.86-42.34L46.08-42.41C49.20-42.46 51.48-42.34 52.92-42.05C53.26-42.00 53.66-41.88 54.14-41.69C55.44-41.26 56.33-40.52 56.81-39.49C57.29-38.46 57.46-37.39 57.31-36.29C57.17-35.28 56.83-34.34 56.30-33.48C55.63-32.28 54.67-31.44 53.42-30.96C51.22-30.10 48.82-29.69 46.22-29.74C46.18-29.74 46.06-29.76 45.86-29.81ZM96.41-21.31C96.46-19.25 96.48-16.14 96.48-11.99L96.48-2.66C96.48-2.18 96.50-1.87 96.55-1.73C96.60-0.67 97.15-0.12 98.21-0.07C99.84-0.02 101.38-0.02 102.82-0.07C103.49-0.07 103.98-0.23 104.29-0.54C104.60-0.85 104.76-1.34 104.76-2.02L104.76-2.52C104.76-24.98 104.74-40.30 104.69-48.46C104.69-48.89 104.66-49.27 104.62-49.61C104.47-50.28 104.04-50.66 103.32-50.76C103.13-50.81 102.84-50.83 102.46-50.83C99.91-50.78 98.62-50.76 98.57-50.76C97.70-50.81 97.10-50.65 96.77-50.29C96.43-49.93 96.29-49.32 96.34-48.46L96.34-31.97L96.34-31.64L96.34-31.28L96.34-30.96C95.76-30.86 92.95-30.80 87.91-30.78C82.87-30.76 80.18-30.82 79.85-30.96L79.85-31.90L79.85-46.08C79.85-47.86 79.82-48.89 79.78-49.18C79.78-50.18 79.25-50.74 78.19-50.83L77.62-50.83C74.98-50.78 73.58-50.76 73.44-50.76C72.05-50.86 71.38-50.21 71.42-48.82L71.42-48.53C71.42-45.50 71.44-41.24 71.46-35.75C71.48-30.25 71.51-25.25 71.53-20.74C71.56-16.22 71.57-11.98 71.57-7.99C71.57-5.06 71.59-3.02 71.64-1.87C71.69-1.20 71.84-0.73 72.11-0.47C72.37-0.20 72.84-0.07 73.51-0.07C73.94-0.07 75.38-0.05 77.83 0C77.98 0 78.12-0.02 78.26-0.07C79.27-0.17 79.80-0.72 79.85-1.73C79.90-1.92 79.90-2.45 79.85-3.31L79.85-7.88L79.85-12.31L79.85-16.92L79.85-21.38L79.85-21.71L79.85-22.10L79.85-22.46L96.41-22.46Z" fill="#ffffff" transform="translate(18.166608533379833 98.68514158522007)"></path></g></g></g></g></svg><style>@media (prefers-color-scheme: light) { :root { filter: none; } }
@media (prefers-color-scheme: dark) { :root { filter: none; } }
</style></svg>